{
  "accessors": [
    {
      "bufferView": 2,
      "componentType": 5126,
      "count": 1566,
      "max": [
        0.886777400970459,
        0.6903527975082397,
        0.8583489060401917
      ],
      "min": [
        -0.9079755544662476,
        -0.6267424821853638,
        -0.8862658143043518
      ],
      "type": "VEC3"
    },
    {
      "bufferView": 2,
      "byteOffset": 18792,
      "componentType": 5126,
      "count": 1566,
      "max": [
        0.9978711605072021,
        0.9997288584709167,
        0.9984998106956482
      ],
      "min": [
        -0.996728241443634,
        -0.9994927048683167,
        -0.9974865913391113
      ],
      "type": "VEC3"
    },
    {
      "bufferView": 1,
      "componentType": 5126,
      "count": 1566,
      "max": [
        1.0,
        1.0
      ],
      "min": [
        0.0,
        0.0
      ],
      "type": "VEC2"
    },
    {
      "bufferView": 2,
      "byteOffset": 37584,
      "componentType": 5126,
      "count": 1566,
      "max": [
        0.07173436880111694,
        0.05709654092788696,
        0.09066382050514221
      ],
      "min": [
        -0.06748335808515549,
        -0.08477401733398438,
        -0.07515010237693787
      ],
      "type": "VEC3"
    },
    {
      "bufferView": 2,
      "byteOffset": 56376,
      "componentType": 5126,
      "count": 1566,
      "max": [
        0.13356292247772217,
        0.11307302117347717,
        0.17990872263908386
      ],
      "min": [
        -0.14297054708003998,
        -0.16993427276611328,
        -0.15375210344791412
      ],
      "type": "VEC3"
    },
    {
      "bufferView": 2,
      "byteOffset": 75168,
      "componentType": 5126,
      "count": 1566,
      "max": [
        0.1844739317893982,
        0.1677100658416748,
        0.26514866948127747
      ],
      "min": [
        -0.2245132327079773,
        -0.25375843048095703,
        -0.2334805279970169
      ],
      "type": "VEC3"
    },
    {
      "bufferView": 2,
      "byteOffset": 93960,
      "componentType": 5126,
      "count": 1566,
      "max": [
        0.2486145943403244,
        0.22369274497032166,
        0.3440621793270111
      ],
      "min": [
        -0.3098013997077942,
        -0.3347969055175781,
        -0.3119611144065857
      ],
      "type": "VEC3"
    },
    {
      "bufferView": 2,
      "byteOffset": 112752,
      "componentType": 5126,
      "count": 1566,
      "max": [
        0.33015725016593933,
        0.27694398164749146,
        0.4147067368030548
      ],
      "min": [
        -0.39631181955337524,
        -0.41421055793762207,
        -0.38691991567611694
      ],
      "type": "VEC3"
    },
    {
      "bufferView": 2,
      "byteOffset": 131544,
      "componentType": 5126,
      "count": 1566,
      "max": [
        0.4154454171657562,
        0.32591310143470764,
        0.47559598088264465
      ],
      "min": [
        -0.4814682602882385,
        -0.49524903297424316,
        -0.456315279006958
      ],
      "type": "VEC3"
    },
    {
      "bufferView": 2,
      "byteOffset": 150336,
      "componentType": 5126,
      "count": 1566,
      "max": [
        0.5019558668136597,
        0.3706463873386383,
        0.5257335901260376
      ],
      "min": [
        -0.562803328037262,
        -0.5723240375518799,
        -0.5184391140937805
      ],
      "type": "VEC3"
    },
    {
      "bufferView": 2,
      "byteOffset": 169128,
      "componentType": 5126,
      "count": 1566,
      "max": [
        0.587112307548523,
        0.4196155071258545,
        0.5646101236343384
      ],
      "min": [
        -0.6381016969680786,
        -0.6445505619049072,
        -0.5719841718673706
      ],
      "type": "VEC3"
    },
    {
      "bufferView": 2,
      "byteOffset": 187920,
      "componentType": 5126,
      "count": 1566,
      "max": [
        0.6684473156929016,
        0.46281611919403076,
        0.5921667814254761
      ],
      "min": [
        -0.7055099606513977,
        -0.7113096714019775,
        -0.6160744428634644
      ],
      "type": "VEC3"
    },
    {
      "bufferView": 2,
      "byteOffset": 206712,
      "componentType": 5126,
      "count": 1566,
      "max": [
        0.7437456846237183,
        0.49881434440612793,
        0.6087374687194824
      ],
      "min": [
        -0.763609766960144,
        -0.7786481976509094,
        -0.6502619385719299
      ],
      "type": "VEC3"
    },
    {
      "bufferView": 2,
      "byteOffset": 225504,
      "componentType": 5126,
      "count": 1566,
      "max": [
        0.8111539483070374,
        0.5320753455162048,
        0.6179090142250061
      ],
      "min": [
        -0.8114504814147949,
        -0.8454073071479797,
        -0.6744948029518127
      ],
      "type": "VEC3"
    },
    {
      "bufferView": 2,
      "byteOffset": 244296,
      "componentType": 5126,
      "count": 1566,
      "max": [
        0.8692537546157837,
        0.5604955554008484,
        0.707153856754303
      ],
      "min": [
        -0.8485460877418518,
        -0.9063230752944946,
        -0.7437922954559326
      ],
      "type": "VEC3"
    },
    {
      "bufferView": 2,
      "byteOffset": 263088,
      "componentType": 5126,
      "count": 1566,
      "max": [
        0.9170944690704346,
        0.5878969430923462,
        0.7923938035964966
      ],
      "min": [
        -0.8748403191566467,
        -0.9612309336662292,
        -0.8059160709381104
      ],
      "type": "VEC3"
    },
    {
      "bufferView": 2,
      "byteOffset": 281880,
      "componentType": 5126,
      "count": 1566,
      "max": [
        0.9541900753974915,
        0.6134067177772522,
        0.8713073134422302
      ],
      "min": [
        -0.8906518816947937,
        -1.0101439952850342,
        -0.8594611883163452
      ],
      "type": "VEC3"
    },
    {
      "bufferView": 2,
      "byteOffset": 300672,
      "componentType": 5126,
      "count": 1566,
      "max": [
        0.9804843068122864,
        0.6288278102874756,
        0.9419518709182739
      ],
      "min": [
        -0.8966044783592224,
        -1.0532172918319702,
        -0.903551459312439
      ],
      "type": "VEC3"
    },
    {
      "bufferView": 2,
      "byteOffset": 319464,
      "componentType": 5126,
      "count": 1566,
      "max": [
        0.9962958693504333,
        0.6455280780792236,
        1.0028411149978638
      ],
      "min": [
        -0.8935520648956299,
        -1.1019182205200195,
        -0.9377388954162598
      ],
      "type": "VEC3"
    },
    {
      "bufferView": 2,
      "byteOffset": 338256,
      "componentType": 5126,
      "count": 1566,
      "max": [
        1.0022485256195068,
        0.660949170589447,
        1.0529786348342896
      ],
      "min": [
        -0.882505476474762,
        -1.1449916362762451,
        -0.9619717597961426
      ],
      "type": "VEC3"
    },
    {
      "bufferView": 2,
      "byteOffset": 357048,
      "componentType": 5126,
      "count": 1566,
      "max": [
        0.9991960525512695,
        0.6628832221031189,
        1.0918552875518799
      ],
      "min": [
        -0.8645647764205933,
        -1.1824893951416016,
        -0.9765437841415405
      ],
      "type": "VEC3"
    },
    {
      "bufferView": 2,
      "byteOffset": 375840,
      "componentType": 5126,
      "count": 1566,
      "max": [
        0.9881494641304016,
        0.6775162816047668,
        1.119411826133728
      ],
      "min": [
        -0.9163438081741333,
        -1.2147560119628906,
        -0.9820296764373779
      ],
      "type": "VEC3"
    },
    {
      "bufferView": 2,
      "byteOffset": 394632,
      "componentType": 5126,
      "count": 1566,
      "max": [
        0.9702087640762329,
        0.6794503331184387,
        1.1359825134277344
      ],
      "min": [
        -0.9781724214553833,
        -1.2421884536743164,
        -0.9792166948318481
      ],
      "type": "VEC3"
    },
    {
      "bufferView": 2,
      "byteOffset": 413424,
      "componentType": 5126,
      "count": 1566,
      "max": [
        0.9465042352676392,
        0.6847397089004517,
        1.1422208547592163
      ],
      "min": [
        -1.0290833711624146,
        -1.2652151584625244,
        -0.9690361022949219
      ],
      "type": "VEC3"
    },
    {
      "bufferView": 2,
      "byteOffset": 432216,
      "componentType": 5126,
      "count": 1566,
      "max": [
        0.918148934841156,
        0.6866737604141235,
        1.1390219926834106
      ],
      "min": [
        -1.0685597658157349,
        -1.2806446552276611,
        -0.9525017738342285
      ],
      "type": "VEC3"
    },
    {
      "bufferView": 2,
      "byteOffset": 451008,
      "componentType": 5126,
      "count": 1566,
      "max": [
        0.8862022757530212,
        0.6872805953025818,
        1.127445101737976
      ],
      "min": [
        -1.096541404724121,
        -1.3036713600158691,
        -0.9306555986404419
      ],
      "type": "VEC3"
    },
    {
      "bufferView": 2,
      "byteOffset": 469800,
      "componentType": 5126,
      "count": 1566,
      "max": [
        0.8806395530700684,
        0.6892146468162537,
        1.1086429357528687
      ],
      "min": [
        -1.1133677959442139,
        -1.3170952796936035,
        -0.9045231342315674
      ],
      "type": "VEC3"
    },
    {
      "bufferView": 2,
      "byteOffset": 488592,
      "componentType": 5126,
      "count": 1566,
      "max": [
        0.8721142411231995,
        0.6879289746284485,
        1.0838004350662231
      ],
      "min": [
        -1.1197023391723633,
        -1.3160526752471924,
        -0.9295573234558105
      ],
      "type": "VEC3"
    },
    {
      "bufferView": 2,
      "byteOffset": 507384,
      "componentType": 5126,
      "count": 1566,
      "max": [
        0.8876785039901733,
        0.6898630261421204,
        1.0540837049484253
      ],
      "min": [
        -1.1164541244506836,
        -1.3017984628677368,
        -0.9684339165687561
      ],
      "type": "VEC3"
    },
    {
      "bufferView": 2,
      "byteOffset": 526176,
      "componentType": 5126,
      "count": 1566,
      "max": [
        0.8988758325576782,
        0.6880135536193848,
        1.0206032991409302
      ],
      "min": [
        -1.1046985387802124,
        -1.2986974716186523,
        -0.995990514755249
      ],
      "type": "VEC3"
    },
    {
      "bufferView": 2,
      "byteOffset": 544968,
      "componentType": 5126,
      "count": 1566,
      "max": [
        0.9056740403175354,
        0.6899476051330566,
        0.984385073184967
      ],
      "min": [
        -1.0856064558029175,
        -1.2844433784484863,
        -1.0125612020492554
      ],
      "type": "VEC3"
    },
    {
      "bufferView": 2,
      "byteOffset": 563760,
      "componentType": 5126,
      "count": 1566,
      "max": [
        0.9079755544662476,
        0.6880012154579163,
        0.9463533759117126
      ],
      "min": [
        -1.0603805780410767,
        -1.2585440874099731,
        -1.0187995433807373
      ],
      "type": "VEC3"
    },
    {
      "bufferView": 2,
      "byteOffset": 582552,
      "componentType": 5126,
      "count": 1566,
      "max": [
        0.9079755544662476,
        0.6899352669715881,
        0.9073219895362854
      ],
      "min": [
        -1.030205488204956,
        -1.222762107849121,
        -1.0156006813049316
      ],
      "type": "VEC3"
    },
    {
      "bufferView": 2,
      "byteOffset": 601344,
      "componentType": 5126,
      "count": 1566,
      "max": [
        0.9079755544662476,
        0.6880012154579163,
        0.8788940906524658
      ],
      "min": [
        -0.996208667755127,
        -1.1927049160003662,
        -1.004023790359497
      ],
      "type": "VEC3"
    },
    {
      "bufferView": 2,
      "byteOffset": 620136,
      "componentType": 5126,
      "count": 1566,
      "max": [
        0.9149518609046936,
        0.6899352669715881,
        0.884418249130249
      ],
      "min": [
        -0.9594316482543945,
        -1.1569228172302246,
        -0.9852216243743896
      ],
      "type": "VEC3"
    },
    {
      "bufferView": 2,
      "byteOffset": 638928,
      "componentType": 5126,
      "count": 1566,
      "max": [
        0.9209044575691223,
        0.6880012154579163,
        0.8862658143043518
      ],
      "min": [
        -0.9208132028579712,
        -1.113126277923584,
        -0.9603790640830994
      ],
      "type": "VEC3"
    },
    {
      "bufferView": 2,
      "byteOffset": 657720,
      "componentType": 5126,
      "count": 1566,
      "max": [
        0.9178520441055298,
        0.6899352669715881,
        0.8862658143043518
      ],
      "min": [
        -0.9022917151451111,
        -1.063220500946045,
        -0.9306623935699463
      ],
      "type": "VEC3"
    },
    {
      "bufferView": 2,
      "byteOffset": 676512,
      "componentType": 5126,
      "count": 1566,
      "max": [
        0.9079755544662476,
        0.6880012154579163,
        0.8862658143043518
      ],
      "min": [
        -0.9089287519454956,
        -1.0141841173171997,
        -0.8971819877624512
      ],
      "type": "VEC3"
    },
    {
      "bufferView": 2,
      "byteOffset": 695304,
      "componentType": 5126,
      "count": 1566,
      "max": [
        0.9079755544662476,
        0.6899352669715881,
        0.8862658143043518
      ],
      "min": [
        -0.907179594039917,
        -0.9642782211303711,
        -0.8861971497535706
      ],
      "type": "VEC3"
    },
    {
      "bufferView": 0,
      "componentType": 5125,
      "count": 6318,
      "type": "SCALAR"
    },
    {
      "bufferView": 3,
      "componentType": 5126,
      "count": 37,
      "max": [
        1.5
      ],
      "min": [
        0.0
      ],
      "type": "SCALAR"
    },
    {
      "bufferView": 3,
      "byteOffset": 148,
      "componentType": 5126,
      "count": 1332,
      "max": [
        1.0
      ],
      "min": [
        0.0
      ],
      "type": "SCALAR"
    }
  ],
  "animations": [
    {
      "channels": [
        {
          "sampler": 0,
          "target": {
            "node": 5,
            "path": "weights"
          }
        }
      ],
      "name": "Object_0",
      "samplers": [
        {
          "input": 40,
          "interpolation": "LINEAR",
          "output": 41
        }
      ]
    }
  ],
  "asset": {
    "extras": {
      "author": "alexandra.m.neville (https://sketchfab.com/alexandra.m.neville)",
      "license": "CC-BY-4.0 (http://creativecommons.org/licenses/by/4.0/)",
      "source": "https://sketchfab.com/3d-models/simple-flower-loop-a9d02b903a494b60906d44d0c855f7a3",
      "title": "Simple Flower Loop"
    },
    "generator": "Sketchfab-12.67.0",
    "version": "2.0"
  },
  "bufferViews": [
    {
      "buffer": 0,
      "byteLength": 25272,
      "name": "floatBufferViews",
      "target": 34963
    },
    {
      "buffer": 0,
      "byteLength": 12528,
      "byteOffset": 25272,
      "byteStride": 8,
      "name": "floatBufferViews",
      "target": 34962
    },
    {
      "buffer": 0,
      "byteLength": 714096,
      "byteOffset": 37800,
      "byteStride": 12,
      "name": "floatBufferViews",
      "target": 34962
    },
    {
      "buffer": 0,
      "byteLength": 5476,
      "byteOffset": 751896,
      "name": "floatBufferViews"
    }
  ],
  "buffers": [
    {
      "byteLength": 757372,
      "uri": "scene.bin"
    }
  ],
  "extensionsUsed": [
    "KHR_materials_unlit"
  ],
  "images": [
    {
      "uri": "textures/timeshift4_baseColor.png"
    }
  ],
  "materials": [
    {
      "alphaMode": "BLEND",
      "doubleSided": true,
      "emissiveFactor": [
        0.01161944948125264,
        0.00976897025798392,
        0.14961598592807163
      ],
      "extensions": {
        "KHR_materials_unlit": {}
      },
      "name": "timeshift4",
      "pbrMetallicRoughness": {
        "baseColorFactor": [
          1.0,
          1.0,
          1.0,
          0.792132559935307
        ],
        "baseColorTexture": {
          "index": 0
        },
        "metallicFactor": 0.0
      }
    }
  ],
  "meshes": [
    {
      "name": "timeshift4",
      "primitives": [
        {
          "attributes": {
            "NORMAL": 1,
            "POSITION": 0,
            "TEXCOORD_0": 2
          },
          "indices": 39,
          "material": 0,
          "mode": 4,
          "targets": [
            {
              "POSITION": 3
            },
            {
              "POSITION": 4
            },
            {
              "POSITION": 5
            },
            {
              "POSITION": 6
            },
            {
              "POSITION": 7
            },
            {
              "POSITION": 8
            },
            {
              "POSITION": 9
            },
            {
              "POSITION": 10
            },
            {
              "POSITION": 11
            },
            {
              "POSITION": 12
            },
            {
              "POSITION": 13
            },
            {
              "POSITION": 14
            },
            {
              "POSITION": 15
            },
            {
              "POSITION": 16
            },
            {
              "POSITION": 17
            },
            {
              "POSITION": 18
            },
            {
              "POSITION": 19
            },
            {
              "POSITION": 20
            },
            {
              "POSITION": 21
            },
            {
              "POSITION": 22
            },
            {
              "POSITION": 23
            },
            {
              "POSITION": 24
            },
            {
              "POSITION": 25
            },
            {
              "POSITION": 26
            },
            {
              "POSITION": 27
            },
            {
              "POSITION": 28
            },
            {
              "POSITION": 29
            },
            {
              "POSITION": 30
            },
            {
              "POSITION": 31
            },
            {
              "POSITION": 32
            },
            {
              "POSITION": 33
            },
            {
              "POSITION": 34
            },
            {
              "POSITION": 35
            },
            {
              "POSITION": 36
            },
            {
              "POSITION": 37
            },
            {
              "POSITION": 38
            }
          ]
        }
      ],
      "weights": [
        0.0,
        0.0,
        0.0,
        0.0,
        0.0,
        0.0,
        0.0,
        0.0,
        0.0,
        0.0,
        0.0,
        0.0,
        0.0,
        0.0,
        0.0,
        0.0,
        0.0,
        0.0,
        0.0,
        0.0,
        0.0,
        0.0,
        0.0,
        0.0,
        0.0,
        0.0,
        0.0,
        0.0,
        0.0,
        0.0,
        0.0,
        0.0,
        0.0,
        0.0,
        0.0,
        0.0
      ]
    }
  ],
  "nodes": [
    {
      "children": [
        1
      ],
      "matrix": [
        0.044990370512807853,
        -3.3848944880022316,
        0.11533612236308968,
        0.0,
        3.1555749337248926,
        -2.5530516285449284e-11,
        -1.2309281698856864,
        0.0,
        1.2301056686803236,
        0.12380046278506215,
        3.1534663911159555,
        0.0,
        -0.011013983748853207,
        0.03561553359031678,
        -0.04363889247179031,
        1.0
      ],
      "name": "Sketchfab_model"
    },
    {
      "children": [
        2
      ],
      "name": "d9519426e61142ddacee8e1492ac5ef6.abc.cleaner.materialmerger.gles"
    },
    {
      "children": [
        3
      ],
      "matrix": [
        1.0,
        0.0,
        0.0,
        0.0,
        0.0,
        2.220446049250313e-16,
        1.0,
        0.0,
        0.0,
        -1.0,
        2.220446049250313e-16,
        0.0,
        0.0,
        0.0,
        0.0,
        1.0
      ],
      "name": "Object_2"
    },
    {
      "children": [
        4
      ],
      "name": "Object_3"
    },
    {
      "children": [
        5
      ],
      "name": "MorphMainGroup"
    },
    {
      "mesh": 0,
      "name": "timeshift4"
    }
  ],
  "samplers": [
    {
      "magFilter": 9729,
      "minFilter": 9987,
      "wrapS": 10497,
      "wrapT": 10497
    }
  ],
  "scene": 0,
  "scenes": [
    {
      "name": "Sketchfab_Scene",
      "nodes": [
        0
      ]
    }
  ],
  "textures": [
    {
      "sampler": 0,
      "source": 0
    }
  ]
}
